<?xml version="1.0" encoding="UTF-8"?>
<svg width="109px" height="109px" viewBox="0 0 109 109" version="1.1" xmlns="http://www.w3.org/2000/svg" xmlns:xlink="http://www.w3.org/1999/xlink">
    <!-- Generator: Sketch 63.1 (92452) - https://sketch.com -->
    <title>Group</title>
    <desc>Created with Sketch.</desc>
    <g id="Page-1" stroke="none" stroke-width="1" fill="none" fill-rule="evenodd" opacity="0.8">
        <g id="Artboard" transform="translate(-314.000000, -104.000000)">
            <g id="Group" transform="translate(314.000000, 104.000000)">
                <path d="M54.5004691,0 C24.4494926,0 0,24.4478265 0,54.5 C0,84.5521735 24.4494926,109 54.5004691,109 C84.5514457,109 109,84.5521735 109,54.5 C109,24.4478265 84.5514457,0 54.5004691,0" id="Fill-1" fill-opacity="0.93" fill="#2A1B71"></path>
                <path d="M71.7483666,57.5334175 L46.0304545,73.5968921 C44.2702993,74.6961109 42,73.417689 42,71.3280533 L42,36.6722609 C42,34.5010238 44.4311055,33.2394022 46.1785864,34.5034238 L71.8964985,53.0957416 C73.4293069,54.2045606 73.3516763,56.5318004 71.7483666,57.5334175" id="Fill-4" fill="#FFFFFF"></path>
                <path d="M55.3407545,11.4444444 C31.1363362,11.4444444 11.4444444,31.1363362 11.4444444,55.3398011 C11.4444444,79.5442194 31.1363362,99.2361111 55.3407545,99.2361111 C79.5451728,99.2361111 99.2361111,79.5442194 99.2361111,55.3398011 C99.2361111,31.1363362 79.5451728,11.4444444 55.3407545,11.4444444 M55.0004774,104 C27.9815672,104 6,82.0184328 6,54.9995226 C6,27.9806124 27.9815672,6 55.0004774,6 C82.0193876,6 104,27.9806124 104,54.9995226 C104,82.0184328 82.0193876,104 55.0004774,104" id="Fill-6" fill="#FFFFFF"></path>
            </g>
        </g>
    </g>
</svg>