<?xml version="1.0" encoding="UTF-8"?>
<svg width="130px" height="66px" viewBox="0 0 130 66" version="1.1" xmlns="http://www.w3.org/2000/svg" xmlns:xlink="http://www.w3.org/1999/xlink">
    <!-- Generator: Sketch 53.2 (72643) - https://sketchapp.com -->
    <title>Group 29</title>
    <desc>Created with Sketch.</desc>
    <defs>
        <polygon id="path-1" points="0.0459111111 0.151777083 3.87391111 0.151777083 3.87391111 11 0.0459111111 11"></polygon>
        <polygon id="path-3" points="0.190205825 0.04354 23.7998447 0.04354 23.7998447 34.96024 0.190205825 34.96024"></polygon>
    </defs>
    <g id="Page-1" stroke="none" stroke-width="1" fill="none" fill-rule="evenodd">
        <g id="Artboard-Copy-9" transform="translate(-71.000000, -3364.000000)">
            <g id="Group-29" transform="translate(71.000000, 3364.000000)">
                <path d="M48.9006668,31.4998836 C48.9006668,33.9263222 46.9262355,35.9002635 44.4997671,35.9002635 C42.0735316,35.9002635 40.0993332,33.9263222 40.0993332,31.4998836 C40.0993332,29.0734449 42.0735316,27.0992707 44.4997671,27.0992707 C46.9262355,27.0992707 48.9006668,29.0734449 48.9006668,31.4998836 M44.4997671,22 C39.2613993,22 35,26.2615799 35,31.4998836 C35,36.7381872 39.2613993,41 44.4997671,41 C49.7383678,41 54,36.7381872 54,31.4998836 C54,26.2615799 49.7383678,22 44.4997671,22" id="Fill-1" fill="#FFFFFF"></path>
                <path d="M84.5,35.9004339 C82.0735316,35.9004339 80.0995661,33.9262355 80.0995661,31.5 C80.0995661,29.0735316 82.0735316,27.0993332 84.5,27.0993332 C86.9264684,27.0993332 88.9006668,29.0735316 88.9006668,31.5 C88.9006668,33.9262355 86.9264684,35.9004339 84.5,35.9004339 M84.5,22 C79.2616322,22 75,26.2613993 75,31.5 C75,36.7383678 79.2616322,41 84.5,41 C89.7381349,41 94,36.7383678 94,31.5 C94,26.2613993 89.7381349,22 84.5,22" id="Fill-3" fill="#FFFFFF"></path>
                <path d="M65.564621,36.6359895 C63.2572092,36.6359895 61.3799644,34.7779278 61.3799644,32.4943866 C61.3799644,30.2108454 63.2572092,28.3530211 65.564621,28.3530211 C67.8720327,28.3530211 69.7495173,30.2108454 69.7495173,32.4943866 C69.7495173,34.7779278 67.8720327,36.6359895 65.564621,36.6359895 M65.564621,23.1568555 C63.8825578,23.1568555 62.3031209,23.5968104 60.9342117,24.3632905 C60.4894181,23.5521979 59.6211714,23 58.6251215,23 C57.1775641,23 56,24.165382 56,25.5979641 L56,49.4022732 C56,50.834618 57.1775641,52 58.6251215,52 C60.0726789,52 61.2502429,50.834618 61.2502429,49.4022732 L61.2502429,40.793966 C62.5443405,41.4557967 64.0106008,41.8319177 65.564621,41.8319177 C70.7671475,41.8319177 75,37.6430921 75,32.4943866 C75,27.3456811 70.7671475,23.1568555 65.564621,23.1568555" id="Fill-5" fill="#FFFFFF"></path>
                <path d="M32.5105028,21.7204936 L30.9093485,21.7204936 L30.9093485,19.5560293 C30.9093485,18.1466758 29.7924967,17 28.4198513,17 C27.0472059,17 25.9305815,18.1466758 25.9305815,19.5560293 L25.9305815,21.7204936 L24.4892698,21.7204936 C23.1168518,21.7204936 22,22.8674029 22,24.2767564 C22,25.6863434 23.1168518,26.8330191 24.4892698,26.8330191 L25.9305815,26.8330191 L25.9305815,38.2061469 C25.9305815,41.4007748 28.4614604,44 31.5723655,44 C32.9450109,44 34.0616353,42.8530907 34.0616353,41.4437372 C34.0616353,40.0341503 32.9450109,38.8870075 31.5723655,38.8870075 C31.2067512,38.8870075 30.9093485,38.5816009 30.9093485,38.2061469 L30.9093485,26.8330191 L32.5105028,26.8330191 C33.8833756,26.8330191 35,25.6863434 35,24.2767564 C35,22.8674029 33.8833756,21.7204936 32.5105028,21.7204936" id="Fill-7" fill="#FFFFFF"></path>
                <path d="M12.806205,28.7284987 L10.4925506,28.3624584 L10.4406782,28.35474 C7.57158575,27.9611005 5.85884676,26.2557972 5.85884676,23.793153 C5.85884676,20.9055279 8.89989999,20.5937504 10.2073705,20.5937504 C11.8833961,20.5937504 13.3976459,21.3438406 14.2576867,22.6000722 C15.1324129,23.8778217 16.8967875,24.2146256 18.1905201,23.3508641 C19.4842527,22.4871026 19.825332,20.7450783 18.9508426,19.4673287 C17.0360615,16.6699857 13.7673853,15 10.2073705,15 C7.46120871,15 5.06157399,15.7620187 3.2683024,17.2037262 C1.28577919,18.7972294 0.194088688,21.1375483 0.194088688,23.793153 C0.194088688,29.0482284 3.98859548,33.1067147 9.62374597,33.8900175 L12.2872434,34.3112562 L12.5660283,34.3196763 C15.7470662,34.3196763 18.3350051,36.5821093 18.3350051,39.3630799 C18.3350051,42.1438166 15.7470662,44.4062496 12.5660283,44.4062496 C9.92882243,44.4062496 6.18760927,42.0275725 5.42373384,40.3180591 C5.11842053,39.6343941 4.56179812,39.1090737 3.8561904,38.8391628 C3.15081954,38.5687842 2.38125945,38.5858582 1.68891592,38.8875784 C0.260172795,39.5101977 -0.389535827,41.1645126 0.240987086,42.5751126 C1.39355076,45.1561059 3.9488029,46.9549659 5.36972963,47.7972093 C7.73051921,49.1972842 10.3537503,50 12.5660283,50 C18.8707837,50 24,45.2283784 24,39.3630799 C24,33.6088799 18.9830557,28.8480173 12.806205,28.7284987" id="Fill-9" fill="#FFFFFF"></path>
                <path d="M82.6341904,14.6531546 C82.8035857,14.8472037 83.0485687,14.9702704 83.3149723,14.9953908 C83.3484575,14.9983868 83.382435,15 83.4159201,15 C83.6476075,15 83.8736321,14.9253303 84.0548456,14.7868226 L88.6292568,11.2872563 C89.0611162,10.9567737 89.1248857,10.3614902 88.7720609,9.95749025 L87.3656862,8.34702142 C87.1962909,8.15274191 86.9513079,8.02967517 86.6849043,8.00455481 C86.4185007,7.98012583 86.1523433,8.05456507 85.945031,8.21335343 L81.3706198,11.7129197 C80.9390066,12.0434023 80.8749909,12.6386858 81.2280619,13.0426858 L82.6341904,14.6531546 Z" id="Fill-11" fill="#FFFFFF"></path>
                <path d="M44.7911648,14.726957 C44.9861006,14.9099266 45.2309499,15 45.4750542,15 C45.7521859,15 46.0283242,14.8837514 46.2294682,14.6551036 L47.7355644,12.9401165 C47.9173389,12.7332813 48.0119511,12.4607516 47.9987898,12.182063 C47.9856286,11.9031178 47.8661838,11.641366 47.6660332,11.4537773 L43.2088325,7.27319155 C42.7921418,6.88236029 42.1482328,6.91495095 41.7707775,7.34478835 L40.2644329,9.05977542 C40.0829067,9.26661061 39.9880463,9.53914036 40.0012075,9.81782897 C40.0143688,10.0965176 40.1338135,10.3587825 40.3339642,10.5461147 L44.7911648,14.726957 Z" id="Fill-13" fill="#FFFFFF"></path>
                <path d="M64.7140784,11 L66.2859216,11 C66.6804064,11 67,10.573366 67,10.047277 L67,0.952722971 C67,0.426633994 66.6804064,0 66.2859216,0 L64.7140784,0 C64.3195936,0 64,0.426633994 64,0.952722971 L64,10.047277 C64,10.573366 64.3195936,11 64.7140784,11" id="Fill-15" fill="#FFFFFF"></path>
                <path d="M85.0546542,51.2135624 C84.8473383,51.0550148 84.5821609,50.9785063 84.3147677,51.0052382 C84.0483593,51.029896 83.8036181,51.1529548 83.6339736,51.3472217 L82.228066,52.9575863 C81.8749887,53.3615601 81.9390055,53.9568051 82.3706265,54.2870358 L86.945366,57.786606 C87.1260903,57.9253351 87.3521189,58 87.5838105,58 C87.6175424,58 87.6512744,57.9983869 87.6850063,57.9951606 C87.9514147,57.9702723 88.1964021,57.8472136 88.3655542,57.6529466 L89.7719542,56.0425821 C90.1250315,55.6386082 90.0610147,55.0433633 89.6291475,54.713363 L85.0546542,51.2135624 Z" id="Fill-17" fill="#FFFFFF"></path>
                <path d="M45.2294593,51.3452026 C44.8520021,50.9145898 44.207345,50.882512 43.7911488,51.2733483 L39.3339259,55.4539881 C39.1340226,55.6413226 39.0145772,55.9033343 39.0011676,56.1822832 C38.9882546,56.4609754 39.0828672,56.7335087 39.2643943,56.9400899 L40.7707464,58.6548425 C40.9718913,58.8837499 41.2477827,59 41.5251641,59 C41.7690213,59 42.0138718,58.9099254 42.2090569,58.7269535 L46.6662798,54.5465703 C46.8661831,54.3589792 46.9858768,54.0969674 46.9987898,53.8182752 C47.0119511,53.5393264 46.9173385,53.2665365 46.7358114,53.0602119 L45.2294593,51.3452026 Z" id="Fill-19" fill="#FFFFFF"></path>
                <g id="Group-23" transform="translate(63.000000, 55.000000)">
                    <mask id="mask-2" fill="white">
                        <use xlink:href="#path-1"></use>
                    </mask>
                    <g id="Clip-22"></g>
                    <path d="M2.9628,0.151777083 L0.957022222,0.151777083 C0.453688889,0.151777083 0.0459111111,0.572527083 0.0459111111,1.09158958 L0.0459111111,10.0602562 C0.0459111111,10.5793187 0.453688889,11.0000687 0.957022222,11.0000687 L2.9628,11.0000687 C3.46613333,11.0000687 3.87391111,10.5793187 3.87391111,10.0602562 L3.87391111,1.09158958 C3.87391111,0.572527083 3.46613333,0.151777083 2.9628,0.151777083" id="Fill-21" fill="#FFFFFF" mask="url(#mask-2)"></path>
                </g>
                <path d="M107,24.2767564 C107,22.8674029 105.883356,21.7204936 104.510687,21.7204936 L103.069577,21.7204936 L103.069577,19.5560293 C103.069577,18.1466758 101.952706,17 100.580036,17 C99.2075944,17 98.0904957,18.1466758 98.0904957,19.5560293 L98.0904957,21.7204936 L96.4893133,21.7204936 C95.1166439,21.7204936 94,22.8674029 94,24.2767564 C94,25.6863434 95.1166439,26.8330191 96.4893133,26.8330191 L98.0904957,26.8330191 L98.0904957,38.2061469 C98.0904957,38.5816009 97.7930878,38.8870075 97.427467,38.8870075 C96.0547976,38.8870075 94.9381537,40.0339168 94.9381537,41.4435038 C94.9381537,42.8530907 96.0547976,44 97.427467,44 C100.538427,44 103.069577,41.4007748 103.069577,38.2061469 L103.069577,26.8330191 L104.510687,26.8330191 C105.883356,26.8330191 107,25.6863434 107,24.2767564" id="Fill-24" fill="#FFFFFF"></path>
                <g id="Group-28" transform="translate(106.000000, 15.000000)">
                    <mask id="mask-4" fill="white">
                        <use xlink:href="#path-3"></use>
                    </mask>
                    <g id="Clip-27"></g>
                    <path d="M22.1380893,23.8741067 C20.7330408,23.2532067 19.0844971,23.8934733 18.4642252,25.30094 C17.7127689,27.00684 14.0323806,29.37984 11.4380505,29.37984 C8.3087301,29.37984 5.76286602,27.1228067 5.76286602,24.3484733 C5.76286602,21.5743733 8.3087301,19.31734 11.4380505,19.31734 L11.6065165,19.31734 L14.3199146,18.8905733 C19.8760311,18.10704 23.6088466,14.0584733 23.6088466,8.81594 C23.6088466,6.16644 22.5349049,3.83194 20.5846136,2.24200667 C18.8204971,0.80374 16.4601087,0.04354 13.7583612,0.04354 C10.2562252,0.04354 7.04069126,1.70977333 5.15704078,4.50044 C4.74018641,5.11784 4.58849709,5.86100667 4.72970097,6.59274 C4.87113786,7.32447333 5.28845825,7.95727333 5.90523495,8.37470667 C7.17816699,9.23617333 8.91339029,8.90017333 9.77412816,7.62547333 C10.6199534,6.37224 12.1093515,5.62394 13.7583612,5.62394 C15.0448078,5.62394 18.0361864,5.93497333 18.0361864,8.81594 C18.0361864,11.2724733 16.3512932,12.9737067 13.515332,13.36874 L11.2017786,13.7392733 C5.12558447,13.8585067 0.190205825,18.6080067 0.190205825,24.3484733 C0.190205825,30.1997733 5.23603107,34.96024 11.4380505,34.96024 C13.6145942,34.96024 16.1947107,34.1592067 18.5173515,32.7627067 C19.9149437,31.92224 22.4286524,30.1279067 23.5629437,27.5533067 C24.1829825,26.1456067 23.5438369,24.49524 22.1380893,23.8741067" id="Fill-26" fill="#FFFFFF" mask="url(#mask-4)"></path>
                </g>
            </g>
        </g>
    </g>
</svg>